# xmcd CD database file
#
# Track frame offsets:
#	150
#	18707
#	39101
#	60291
#	77925
#	94923
#	110216
#	123055
#	141757
#	149576
#	170778
#
# Disc length: 2504 seconds
#
# Revision: 3
# Processed by: cddbd v1.5.2PL0 Copyright (c) Steve Scherf et al.
# Submitted via: CDex 1.50
#
DISCID=9909c60b
DTITLE=Jeff Goldblum And The Mildred Snitzer Orchestra - I Shouldn't Be Telling You This
DYEAR=2019
DGENRE=Jazz
TTITLE0=Let's Face The Music And Dance (Ft. Sharon Van Etten)
TTITLE1=The Sidewinder - The Beat Goes On (Ft. Inara George)
TTITLE2=Driftin'
TTITLE3=The Thrill Is Gone - Django (Ft. Miley Cyrus)
TTITLE4=The Kicker
TTITLE5=Don't Worry 'Bout Me (Ft. Fiona Apple)
TTITLE6=The Cat
TTITLE7=Four On Six - Broken English (Ft. Anna Calvi)
TTITLE8=If I Knew Then (Ft. Gina Saputo)
TTITLE9=Make Someone Happy (Ft. Gregory Porter)
TTITLE10=Little Man, You've Had A Busy Day
EXTD=YEAR: 2019
EXTT0=
EXTT1=
EXTT2=
EXTT3=
EXTT4=
EXTT5=
EXTT6=
EXTT7=
EXTT8=
EXTT9=
EXTT10=
PLAYORDER=
